<svg xmlns="http://www.w3.org/2000/svg" id="export" class="canvas" preserveAspectRatio="xMidYMid meet" style="" width="345" height="602"><rect id="background" fill="#fff" pointer-events="all" width="345" height="602"/><g id="origin" transform="translate(25.6628662109375, 15.662866210937501) scale(1)"><g id="clusters" class="clusters"/><g id="edge-paths" class="edge-paths" style="pointer-events: none;"><defs><marker id="arrowhead" viewBox="0 0 10 10" refX="9" refY="5" markerUnits="strokeWidth" markerWidth="8" markerHeight="6" orient="auto" style="fill: rgb(0, 0, 0);"><path d="M 0 0 L 10 5 L 0 10 L 4 5 z" style="stroke-width: 1;"/></marker><marker id="arrowhead-select" viewBox="0 0 10 10" refX="9" refY="5" markerUnits="strokeWidth" markerWidth="8" markerHeight="6" orient="auto" style="fill: rgba(220, 0, 0, 0.9);"><path d="M 0 0 L 10 5 L 0 10 L 4 5 z" style="stroke-width: 1;"/></marker><marker id="arrowhead-hover" viewBox="0 0 10 10" refX="9" refY="5" markerUnits="strokeWidth" markerWidth="8" markerHeight="6" orient="auto" style="fill: rgba(220, 0, 0, 0.9);"><path d="M 0 0 L 10 5 L 0 10 L 4 5 z" style="stroke-width: 1;"/></marker></defs><path id="edge-input.1" class="edge-path" d="M49.637979196947676,23L52.53466039849806,24.666666666666668C55.43134160004845,26.333333333333332,61.22470400314922,29.666666666666668,64.12138520469962,35C67.01806640625,40.333333333333336,67.01806640625,47.666666666666664,67.01806640625,55C67.01806640625,62.333333333333336,67.01806640625,69.66666666666667,67.01806640625,75C67.01806640625,80.33333333333333,67.01806640625,83.66666666666667,67.01806640625,85.33333333333333L67.01806640625,87" style="stroke: rgb(0, 0, 0); stroke-width: 1px; fill: none; marker-end: url(&quot;#arrowhead&quot;);"/><path id="edge-input.1" class="edge-path" d="M8.44226925872093,23L5.368557715600775,24.666666666666668C2.29484617248062,26.333333333333332,-3.8525769137596897,29.666666666666668,-6.9262884568798455,35C-10,40.333333333333336,-10,47.666666666666664,-10,55C-10,62.333333333333336,-10,69.66666666666667,-10,76.91666666666667C-10,84.16666666666667,-10,91.33333333333333,-10,98.5C-10,105.66666666666667,-10,112.83333333333333,-10,120C-10,127.16666666666667,-10,134.33333333333334,-10,143.5C-10,152.66666666666666,-10,163.83333333333334,-10,175C-10,186.16666666666666,-10,197.33333333333334,-10,206.5C-10,215.66666666666666,-10,222.83333333333334,-10,230C-10,237.16666666666666,-10,244.33333333333334,-10,253.5C-10,262.6666666666667,-10,273.8333333333333,-10,285.0833333333333C-10,296.3333333333333,-10,307.6666666666667,-10,317C-10,326.3333333333333,-10,333.6666666666667,-1.1768798828125,339.79635391241317C7.646240234375,345.92604115815965,25.29248046875,350.85208231631935,34.1156005859375,353.31510289539915L42.938720703125,355.778123474479" style="stroke: rgb(0, 0, 0); stroke-width: 1px; fill: none; marker-end: url(&quot;#arrowhead&quot;);"/><path id="edge-fin" class="edge-path" d="M211.1298828125,23L211.1298828125,24.666666666666668C211.1298828125,26.333333333333332,211.1298828125,29.666666666666668,211.1298828125,35C211.1298828125,40.333333333333336,211.1298828125,47.666666666666664,211.1298828125,55C211.1298828125,62.333333333333336,211.1298828125,69.66666666666667,211.1298828125,75C211.1298828125,80.33333333333333,211.1298828125,83.66666666666667,211.1298828125,85.33333333333333L211.1298828125,87" style="stroke: rgb(0, 0, 0); stroke-width: 1px; fill: none; marker-end: url(&quot;#arrowhead&quot;);"/><path id="edge-/whiten/BatchNormalization_output_0" class="edge-path" d="M77.05549373183139,110L78.5101933442345,111.66666666666667C79.9648929566376,113.33333333333333,82.8742921814438,116.66666666666667,85.60666106468022,120C88.33902994791667,123.33333333333333,90.89436848958333,126.66666666666667,92.17203776041667,128.33333333333334L93.44970703125,130" style="stroke: rgb(0, 0, 0); stroke-width: 1px; fill: none; marker-end: url(&quot;#arrowhead&quot;);"/><path id="edge-/whiten/BatchNormalization_output_0" class="edge-path" d="M121.75244140625,104.23679976006056L146.818359375,106.86399980005046C171.88427734375,109.49119984004038,222.01611328125,114.74559992002018,247.08203125,119.03946662667676C272.14794921875,123.33333333333333,272.14794921875,126.66666666666667,272.14794921875,128.33333333333334L272.14794921875,130" style="stroke: rgb(0, 0, 0); stroke-width: 1px; fill: none; marker-end: url(&quot;#arrowhead&quot;);"/><path id="edge-/whiten/BatchNormalization_output_0" class="edge-path" d="M56.03414562136628,110L54.4422730438469,111.66666666666667C52.85040046632752,113.33333333333333,49.666655311288764,116.66666666666667,48.07478273376938,121.91666666666667C46.48291015625,127.16666666666667,46.48291015625,134.33333333333334,46.48291015625,143.5C46.48291015625,152.66666666666666,46.48291015625,163.83333333333334,46.48291015625,175C46.48291015625,186.16666666666666,46.48291015625,197.33333333333334,46.48291015625,206.5C46.48291015625,215.66666666666666,46.48291015625,222.83333333333334,46.48291015625,230C46.48291015625,237.16666666666666,46.48291015625,244.33333333333334,46.48291015625,253.5C46.48291015625,262.6666666666667,46.48291015625,273.8333333333333,46.48291015625,285.0833333333333C46.48291015625,296.3333333333333,46.48291015625,307.6666666666667,46.48291015625,317C46.48291015625,326.3333333333333,46.48291015625,333.6666666666667,48.07478273376938,339C49.666655311288764,344.3333333333333,52.85040046632752,347.6666666666667,54.4422730438469,349.3333333333333L56.03414562136628,351" style="stroke: rgb(0, 0, 0); stroke-width: 1px; fill: none; marker-end: url(&quot;#arrowhead&quot;);"/><path id="edge-/rc/MatMul_output_0" class="edge-path" d="M187.91963799055233,110L184.55583439316862,111.66666666666667C181.19203079578492,113.33333333333333,174.46442360101744,116.66666666666667,163.11062976925874,120.95715590856547C151.7568359375,125.24764515046427,135.77685546875,130.49529030092853,127.786865234375,133.11911287616064L119.796875,135.74293545139278" style="stroke: rgb(0, 0, 0); stroke-width: 1px; fill: none; marker-end: url(&quot;#arrowhead&quot;);"/><path id="edge-/rc/Add_output_0" class="edge-path" d="M102.265625,153L102.265625,156.66666666666666C102.265625,160.33333333333334,102.265625,167.66666666666666,102.265625,175C102.265625,182.33333333333334,102.265625,189.66666666666666,102.265625,193.33333333333334L102.265625,197" style="stroke: rgb(0, 0, 0); stroke-width: 1px; fill: none; marker-end: url(&quot;#arrowhead&quot;);"/><path id="edge-/rc/Mul_output_0" class="edge-path" d="M102.265625,220L102.265625,221.66666666666666C102.265625,223.33333333333334,102.265625,226.66666666666666,102.265625,230C102.265625,233.33333333333334,102.265625,236.66666666666666,102.265625,238.33333333333334L102.265625,240" style="stroke: rgb(0, 0, 0); stroke-width: 1px; fill: none; marker-end: url(&quot;#arrowhead&quot;);"/><path id="edge-x.3" class="edge-path" d="M118.8349609375,257.8318517280753L130.68400065104166,262.3598764400628C142.53304036458334,266.88790115205023,166.23111979166666,275.9439505760251,178.08015950520834,284.2219752880126C189.92919921875,292.5,189.92919921875,300,189.92919921875,303.75L189.92919921875,307.5" style="stroke: rgb(0, 0, 0); stroke-width: 1px; fill: none; marker-end: url(&quot;#arrowhead&quot;);"/><path id="edge-x.3" class="edge-path" d="M108.55552559468283,263L110.56100114661069,266.6666666666667C112.56647669853855,270.3333333333333,116.57742780239427,277.6666666666667,118.58290335432214,287C120.58837890625,296.3333333333333,120.58837890625,307.6666666666667,120.58837890625,317C120.58837890625,326.3333333333333,120.58837890625,333.6666666666667,115.6732177734375,339.30599243169996C110.758056640625,344.9453181967333,100.927734375,348.89063639346654,96.0125732421875,350.8632954918332L91.097412109375,352.8359545901998" style="stroke: rgb(0, 0, 0); stroke-width: 1px; fill: none; marker-end: url(&quot;#arrowhead&quot;);"/><path id="edge-x.3" class="edge-path" d="M95.43129809934702,263L93.2522373484142,266.6666666666667C91.07317659748135,270.3333333333333,86.71505509561568,277.6666666666667,84.53599434468283,285.0833333333333C82.35693359375,292.5,82.35693359375,300,82.35693359375,303.75L82.35693359375,307.5" style="stroke: rgb(0, 0, 0); stroke-width: 1px; fill: none; marker-end: url(&quot;#arrowhead&quot;);"/><path id="edge-/rc/LeakyRelu_output_0" class="edge-path" d="M189.92919921875,330.5L189.92919921875,332.25C189.92919921875,334,189.92919921875,337.5,173.45723470052084,342.13132758227994C156.98527018229166,346.7626551645599,124.04134114583333,352.5253103291197,107.56937662760417,355.4066379113996L91.097412109375,358.2879654936795" style="stroke: rgb(0, 0, 0); stroke-width: 1px; fill: none; marker-end: url(&quot;#arrowhead&quot;);"/><path id="edge-/ff1/Gemm_output_0" class="edge-path" d="M272.14794921875,153L272.14794921875,156.66666666666666C272.14794921875,160.33333333333334,272.14794921875,167.66666666666666,272.14794921875,175C272.14794921875,182.33333333333334,272.14794921875,189.66666666666666,272.14794921875,193.33333333333334L272.14794921875,197" style="stroke: rgb(0, 0, 0); stroke-width: 1px; fill: none; marker-end: url(&quot;#arrowhead&quot;);"/><path id="edge-/LeakyRelu_output_0" class="edge-path" d="M272.14794921875,220L272.14794921875,221.66666666666666C272.14794921875,223.33333333333334,272.14794921875,226.66666666666666,272.14794921875,230C272.14794921875,233.33333333333334,272.14794921875,236.66666666666666,272.14794921875,238.33333333333334L272.14794921875,240" style="stroke: rgb(0, 0, 0); stroke-width: 1px; fill: none; marker-end: url(&quot;#arrowhead&quot;);"/><path id="edge-/ff2/Gemm_output_0" class="edge-path" d="M272.14794921875,263L272.14794921875,266.6666666666667C272.14794921875,270.3333333333333,272.14794921875,277.6666666666667,272.14794921875,285.0833333333333C272.14794921875,292.5,272.14794921875,300,272.14794921875,303.75L272.14794921875,307.5" style="stroke: rgb(0, 0, 0); stroke-width: 1px; fill: none; marker-end: url(&quot;#arrowhead&quot;);"/><path id="edge-/LeakyRelu_1_output_0" class="edge-path" d="M272.14794921875,330.5L272.14794921875,332.25C272.14794921875,334,272.14794921875,337.5,241.97285970052084,342.41270070331456C211.79777018229166,347.32540140662906,151.44759114583334,353.6508028132582,121.27250162760417,356.8135035165728L91.097412109375,359.97620421988734" style="stroke: rgb(0, 0, 0); stroke-width: 1px; fill: none; marker-end: url(&quot;#arrowhead&quot;);"/><path id="edge-/Concat_output_0" class="edge-path" d="M67.01806640625,374L67.01806640625,375.6666666666667C67.01806640625,377.3333333333333,67.01806640625,380.6666666666667,67.01806640625,384C67.01806640625,387.3333333333333,67.01806640625,390.6666666666667,67.01806640625,392.3333333333333L67.01806640625,394" style="stroke: rgb(0, 0, 0); stroke-width: 1px; fill: none; marker-end: url(&quot;#arrowhead&quot;);"/><path id="edge-/lin_out/Gemm_output_0" class="edge-path" d="M67.01806640625,417L67.01806640625,418.6666666666667C67.01806640625,420.3333333333333,67.01806640625,423.6666666666667,67.01806640625,427C67.01806640625,430.3333333333333,67.01806640625,433.6666666666667,67.01806640625,435.3333333333333L67.01806640625,437" style="stroke: rgb(0, 0, 0); stroke-width: 1px; fill: none; marker-end: url(&quot;#arrowhead&quot;);"/><path id="edge-/preact_norm/BatchNormalization_output_0" class="edge-path" d="M67.01806640625,460L67.01806640625,461.6666666666667C67.01806640625,463.3333333333333,67.01806640625,466.6666666666667,67.01806640625,470C67.01806640625,473.3333333333333,67.01806640625,476.6666666666667,67.01806640625,478.3333333333333L67.01806640625,480" style="stroke: rgb(0, 0, 0); stroke-width: 1px; fill: none; marker-end: url(&quot;#arrowhead&quot;);"/><path id="edge-37" class="edge-path select" d="M67.01806640625,503L67.01806640625,506.6666666666667C67.01806640625,510.3333333333333,67.01806640625,517.6666666666666,67.01806640625,525C67.01806640625,532.3333333333334,67.01806640625,539.6666666666666,67.01806640625,543.3333333333334L67.01806640625,547" style="stroke: rgba(220, 0, 0, 0.9); stroke-width: 1px; fill: none; marker-end: url(&quot;#arrowhead-select&quot;);"/></g><g id="edge-labels" class="edge-labels"><text class="edge-label" id="edge-label-edge-input.1" transform="translate(72.01806640625,48)" style="opacity: 1; font-family: -apple-system, BlinkMacSystemFont, &quot;Segoe WPC&quot;, &quot;Segoe UI&quot;, Ubuntu, &quot;Droid Sans&quot;, sans-serif, &quot;PingFang SC&quot;; font-size: 10px;"><tspan xml:space="preserve" dy="1em" x="1">1×8</tspan></text><text class="edge-label" id="edge-label-edge-input.1" transform="translate(-5,168)" style="opacity: 1; font-family: -apple-system, BlinkMacSystemFont, &quot;Segoe WPC&quot;, &quot;Segoe UI&quot;, Ubuntu, &quot;Droid Sans&quot;, sans-serif, &quot;PingFang SC&quot;; font-size: 10px;"><tspan xml:space="preserve" dy="1em" x="1">1×8</tspan></text><text class="edge-label" id="edge-label-edge-fin" transform="translate(216.1298828125,48)" style="opacity: 1; font-family: -apple-system, BlinkMacSystemFont, &quot;Segoe WPC&quot;, &quot;Segoe UI&quot;, Ubuntu, &quot;Droid Sans&quot;, sans-serif, &quot;PingFang SC&quot;; font-size: 10px;"><tspan xml:space="preserve" dy="1em" x="1">1×8</tspan></text><text class="edge-label" id="edge-label-edge-x.3" transform="translate(194.92919921875,278)" style="opacity: 1; font-family: -apple-system, BlinkMacSystemFont, &quot;Segoe WPC&quot;, &quot;Segoe UI&quot;, Ubuntu, &quot;Droid Sans&quot;, sans-serif, &quot;PingFang SC&quot;; font-size: 10px;"><tspan xml:space="preserve" dy="1em" x="1">1×8</tspan></text><text class="edge-label" id="edge-label-edge-x.3" transform="translate(125.58837890625,312)" style="opacity: 1; font-family: -apple-system, BlinkMacSystemFont, &quot;Segoe WPC&quot;, &quot;Segoe UI&quot;, Ubuntu, &quot;Droid Sans&quot;, sans-serif, &quot;PingFang SC&quot;; font-size: 10px;"><tspan xml:space="preserve" dy="1em" x="1">1×8</tspan></text><text class="edge-label" id="edge-label-edge-x.3" transform="translate(87.35693359375,278)" style="opacity: 1; font-family: -apple-system, BlinkMacSystemFont, &quot;Segoe WPC&quot;, &quot;Segoe UI&quot;, Ubuntu, &quot;Droid Sans&quot;, sans-serif, &quot;PingFang SC&quot;; font-size: 10px;"><tspan xml:space="preserve" dy="1em" x="1">1×8</tspan></text><text class="edge-label" id="edge-label-edge-37" transform="translate(72.01806640625,518)" style="opacity: 1; font-family: -apple-system, BlinkMacSystemFont, &quot;Segoe WPC&quot;, &quot;Segoe UI&quot;, Ubuntu, &quot;Droid Sans&quot;, sans-serif, &quot;PingFang SC&quot;; font-size: 10px;"><tspan xml:space="preserve" dy="1em" x="1">1×11</tspan></text></g><g id="nodes" class="nodes"><g id="input-name-input.1" class="node graph-input" transform="translate(5.83837890625,0)" style=""><g class="node-item graph-item-input" transform="translate(0,0)"><path d="M5,0h37.625a5,5 0 0 1 5,5v13a5,5 0 0 1 -5,5h-37.625a5,5 0 0 1 -5,-5v-13a5,5 0 0 1 5,-5z" style="stroke: rgb(0, 0, 0); fill: rgb(238, 238, 238); stroke-width: 0;"/><text x="6" y="16" style="font-family: -apple-system, BlinkMacSystemFont, &quot;Segoe WPC&quot;, &quot;Segoe UI&quot;, Ubuntu, &quot;Droid Sans&quot;, sans-serif, &quot;PingFang SC&quot;; font-size: 11px; text-rendering: geometricprecision; user-select: none;">input.1</text><title>float32[1,8]</title></g><path class="node node-border" d="M5,0h37.625a5,5 0 0 1 5,5v13a5,5 0 0 1 -5,5h-37.625a5,5 0 0 1 -5,-5v-13a5,5 0 0 1 5,-5z" style="stroke: rgb(51, 51, 51); fill: none; stroke-width: 1px;"/></g><g id="input-name-fin" class="node graph-input" transform="translate(197.9580078125,0)" style=""><g class="node-item graph-item-input" transform="translate(0,0)"><path d="M5,0h16.34375a5,5 0 0 1 5,5v13a5,5 0 0 1 -5,5h-16.34375a5,5 0 0 1 -5,-5v-13a5,5 0 0 1 5,-5z" style="stroke: rgb(0, 0, 0); fill: rgb(238, 238, 238); stroke-width: 0;"/><text x="6" y="16" style="font-family: -apple-system, BlinkMacSystemFont, &quot;Segoe WPC&quot;, &quot;Segoe UI&quot;, Ubuntu, &quot;Droid Sans&quot;, sans-serif, &quot;PingFang SC&quot;; font-size: 11px; text-rendering: geometricprecision; user-select: none;">fin</text><title>float32[1,8]</title></g><path class="node node-border" d="M5,0h16.34375a5,5 0 0 1 5,5v13a5,5 0 0 1 -5,5h-16.34375a5,5 0 0 1 -5,-5v-13a5,5 0 0 1 5,-5z" style="stroke: rgb(51, 51, 51); fill: none; stroke-width: 1px;"/></g><g id="node-name-/whiten/BatchNormalization" class="node graph-node" transform="translate(12.28369140625,87)" style=""><g class="node-item node-item-type node-item-type-normalization" transform="translate(0,0)"><path d="M5,0h99.46875a5,5 0 0 1 5,5v13a5,5 0 0 1 -5,5h-99.46875a5,5 0 0 1 -5,-5v-13a5,5 0 0 1 5,-5z" style="stroke: rgb(0, 0, 0); fill: rgb(51, 85, 68); stroke-width: 0;"/><text x="6" y="16" style="font-family: -apple-system, BlinkMacSystemFont, &quot;Segoe WPC&quot;, &quot;Segoe UI&quot;, Ubuntu, &quot;Droid Sans&quot;, sans-serif, &quot;PingFang SC&quot;; font-size: 11px; text-rendering: geometricprecision; user-select: none; fill: rgb(255, 255, 255);">BatchNormalization</text><title>/whiten/BatchNormalization</title></g><path class="node node-border" d="M5,0h99.46875a5,5 0 0 1 5,5v13a5,5 0 0 1 -5,5h-99.46875a5,5 0 0 1 -5,-5v-13a5,5 0 0 1 5,-5z" style="stroke: rgb(51, 51, 51); fill: none; stroke-width: 1px;"/></g><g id="node-name-/rc/MatMul" class="node graph-node" transform="translate(185.1455078125,87)" style=""><g class="node-item node-item-type" transform="translate(0,0)"><path d="M5,0h41.96875a5,5 0 0 1 5,5v13a5,5 0 0 1 -5,5h-41.96875a5,5 0 0 1 -5,-5v-13a5,5 0 0 1 5,-5z" style="stroke: rgb(0, 0, 0); fill: rgb(0, 0, 0); stroke-width: 0;"/><text x="6" y="16" style="font-family: -apple-system, BlinkMacSystemFont, &quot;Segoe WPC&quot;, &quot;Segoe UI&quot;, Ubuntu, &quot;Droid Sans&quot;, sans-serif, &quot;PingFang SC&quot;; font-size: 11px; text-rendering: geometricprecision; user-select: none; fill: rgb(255, 255, 255);">MatMul</text><title>/rc/MatMul</title></g><path class="node node-border" d="M5,0h41.96875a5,5 0 0 1 5,5v13a5,5 0 0 1 -5,5h-41.96875a5,5 0 0 1 -5,-5v-13a5,5 0 0 1 5,-5z" style="stroke: rgb(51, 51, 51); fill: none; stroke-width: 1px;"/></g><g id="node-name-/rc/Add" class="node graph-node" transform="translate(84.734375,130)" style=""><g class="node-item node-item-type" transform="translate(0,0)"><path d="M5,0h25.0625a5,5 0 0 1 5,5v13a5,5 0 0 1 -5,5h-25.0625a5,5 0 0 1 -5,-5v-13a5,5 0 0 1 5,-5z" style="stroke: rgb(0, 0, 0); fill: rgb(0, 0, 0); stroke-width: 0;"/><text x="6" y="16" style="font-family: -apple-system, BlinkMacSystemFont, &quot;Segoe WPC&quot;, &quot;Segoe UI&quot;, Ubuntu, &quot;Droid Sans&quot;, sans-serif, &quot;PingFang SC&quot;; font-size: 11px; text-rendering: geometricprecision; user-select: none; fill: rgb(255, 255, 255);">Add</text><title>/rc/Add</title></g><path class="node node-border" d="M5,0h25.0625a5,5 0 0 1 5,5v13a5,5 0 0 1 -5,5h-25.0625a5,5 0 0 1 -5,-5v-13a5,5 0 0 1 5,-5z" style="stroke: rgb(51, 51, 51); fill: none; stroke-width: 1px;"/></g><g id="node-name-/rc/Mul" class="node graph-node" transform="translate(85.875,197)" style=""><g class="node-item node-item-type" transform="translate(0,0)"><path d="M5,0h22.78125a5,5 0 0 1 5,5v13a5,5 0 0 1 -5,5h-22.78125a5,5 0 0 1 -5,-5v-13a5,5 0 0 1 5,-5z" style="stroke: rgb(0, 0, 0); fill: rgb(0, 0, 0); stroke-width: 0;"/><text x="6" y="16" style="font-family: -apple-system, BlinkMacSystemFont, &quot;Segoe WPC&quot;, &quot;Segoe UI&quot;, Ubuntu, &quot;Droid Sans&quot;, sans-serif, &quot;PingFang SC&quot;; font-size: 11px; text-rendering: geometricprecision; user-select: none; fill: rgb(255, 255, 255);">Mul</text><title>/rc/Mul</title></g><path class="node node-border" d="M5,0h22.78125a5,5 0 0 1 5,5v13a5,5 0 0 1 -5,5h-22.78125a5,5 0 0 1 -5,-5v-13a5,5 0 0 1 5,-5z" style="stroke: rgb(51, 51, 51); fill: none; stroke-width: 1px;"/></g><g id="node-name-/rc/Clip" class="node graph-node" transform="translate(85.6962890625,240)" style=""><g class="node-item node-item-type node-item-type-activation" transform="translate(0,0)"><path d="M5,0h23.138671875a5,5 0 0 1 5,5v13a5,5 0 0 1 -5,5h-23.138671875a5,5 0 0 1 -5,-5v-13a5,5 0 0 1 5,-5z" style="stroke: rgb(0, 0, 0); fill: rgb(112, 41, 33); stroke-width: 0;"/><text x="6" y="16" style="font-family: -apple-system, BlinkMacSystemFont, &quot;Segoe WPC&quot;, &quot;Segoe UI&quot;, Ubuntu, &quot;Droid Sans&quot;, sans-serif, &quot;PingFang SC&quot;; font-size: 11px; text-rendering: geometricprecision; user-select: none; fill: rgb(255, 255, 255);">Clip</text><title>/rc/Clip</title></g><path class="node node-border" d="M5,0h23.138671875a5,5 0 0 1 5,5v13a5,5 0 0 1 -5,5h-23.138671875a5,5 0 0 1 -5,-5v-13a5,5 0 0 1 5,-5z" style="stroke: rgb(51, 51, 51); fill: none; stroke-width: 1px;"/></g><g id="node-name-/rc/LeakyRelu" class="node graph-node" transform="translate(158.81982421875,307.5)" style=""><g class="node-item node-item-type node-item-type-activation" transform="translate(0,0)"><path d="M5,0h52.21875a5,5 0 0 1 5,5v13a5,5 0 0 1 -5,5h-52.21875a5,5 0 0 1 -5,-5v-13a5,5 0 0 1 5,-5z" style="stroke: rgb(0, 0, 0); fill: rgb(112, 41, 33); stroke-width: 0;"/><text x="6" y="16" style="font-family: -apple-system, BlinkMacSystemFont, &quot;Segoe WPC&quot;, &quot;Segoe UI&quot;, Ubuntu, &quot;Droid Sans&quot;, sans-serif, &quot;PingFang SC&quot;; font-size: 11px; text-rendering: geometricprecision; user-select: none; fill: rgb(255, 255, 255);">LeakyRelu</text><title>/rc/LeakyRelu</title></g><path class="node node-border" d="M5,0h52.21875a5,5 0 0 1 5,5v13a5,5 0 0 1 -5,5h-52.21875a5,5 0 0 1 -5,-5v-13a5,5 0 0 1 5,-5z" style="stroke: rgb(51, 51, 51); fill: none; stroke-width: 1px;"/></g><g id="node-name-/ff1/Gemm" class="node graph-node" transform="translate(249.02294921875,130)" style=""><g class="node-item node-item-type node-item-type-layer" transform="translate(0,0)"><path d="M5,0h36.25a5,5 0 0 1 5,5v13a5,5 0 0 1 -5,5h-36.25a5,5 0 0 1 -5,-5v-13a5,5 0 0 1 5,-5z" style="stroke: rgb(0, 0, 0); fill: rgb(51, 85, 136); stroke-width: 0;"/><text x="6" y="16" style="font-family: -apple-system, BlinkMacSystemFont, &quot;Segoe WPC&quot;, &quot;Segoe UI&quot;, Ubuntu, &quot;Droid Sans&quot;, sans-serif, &quot;PingFang SC&quot;; font-size: 11px; text-rendering: geometricprecision; user-select: none; fill: rgb(255, 255, 255);">Gemm</text><title>/ff1/Gemm</title></g><path class="node node-border" d="M5,0h36.25a5,5 0 0 1 5,5v13a5,5 0 0 1 -5,5h-36.25a5,5 0 0 1 -5,-5v-13a5,5 0 0 1 5,-5z" style="stroke: rgb(51, 51, 51); fill: none; stroke-width: 1px;"/></g><g id="node-name-/LeakyRelu" class="node graph-node" transform="translate(241.03857421875,197)" style=""><g class="node-item node-item-type node-item-type-activation" transform="translate(0,0)"><path d="M5,0h52.21875a5,5 0 0 1 5,5v13a5,5 0 0 1 -5,5h-52.21875a5,5 0 0 1 -5,-5v-13a5,5 0 0 1 5,-5z" style="stroke: rgb(0, 0, 0); fill: rgb(112, 41, 33); stroke-width: 0;"/><text x="6" y="16" style="font-family: -apple-system, BlinkMacSystemFont, &quot;Segoe WPC&quot;, &quot;Segoe UI&quot;, Ubuntu, &quot;Droid Sans&quot;, sans-serif, &quot;PingFang SC&quot;; font-size: 11px; text-rendering: geometricprecision; user-select: none; fill: rgb(255, 255, 255);">LeakyRelu</text><title>/LeakyRelu</title></g><path class="node node-border" d="M5,0h52.21875a5,5 0 0 1 5,5v13a5,5 0 0 1 -5,5h-52.21875a5,5 0 0 1 -5,-5v-13a5,5 0 0 1 5,-5z" style="stroke: rgb(51, 51, 51); fill: none; stroke-width: 1px;"/></g><g id="node-name-/ff2/Gemm" class="node graph-node" transform="translate(249.02294921875,240)" style=""><g class="node-item node-item-type node-item-type-layer" transform="translate(0,0)"><path d="M5,0h36.25a5,5 0 0 1 5,5v13a5,5 0 0 1 -5,5h-36.25a5,5 0 0 1 -5,-5v-13a5,5 0 0 1 5,-5z" style="stroke: rgb(0, 0, 0); fill: rgb(51, 85, 136); stroke-width: 0;"/><text x="6" y="16" style="font-family: -apple-system, BlinkMacSystemFont, &quot;Segoe WPC&quot;, &quot;Segoe UI&quot;, Ubuntu, &quot;Droid Sans&quot;, sans-serif, &quot;PingFang SC&quot;; font-size: 11px; text-rendering: geometricprecision; user-select: none; fill: rgb(255, 255, 255);">Gemm</text><title>/ff2/Gemm</title></g><path class="node node-border" d="M5,0h36.25a5,5 0 0 1 5,5v13a5,5 0 0 1 -5,5h-36.25a5,5 0 0 1 -5,-5v-13a5,5 0 0 1 5,-5z" style="stroke: rgb(51, 51, 51); fill: none; stroke-width: 1px;"/></g><g id="node-name-/LeakyRelu_1" class="node graph-node" transform="translate(241.03857421875,307.5)" style=""><g class="node-item node-item-type node-item-type-activation" transform="translate(0,0)"><path d="M5,0h52.21875a5,5 0 0 1 5,5v13a5,5 0 0 1 -5,5h-52.21875a5,5 0 0 1 -5,-5v-13a5,5 0 0 1 5,-5z" style="stroke: rgb(0, 0, 0); fill: rgb(112, 41, 33); stroke-width: 0;"/><text x="6" y="16" style="font-family: -apple-system, BlinkMacSystemFont, &quot;Segoe WPC&quot;, &quot;Segoe UI&quot;, Ubuntu, &quot;Droid Sans&quot;, sans-serif, &quot;PingFang SC&quot;; font-size: 11px; text-rendering: geometricprecision; user-select: none; fill: rgb(255, 255, 255);">LeakyRelu</text><title>/LeakyRelu_1</title></g><path class="node node-border" d="M5,0h52.21875a5,5 0 0 1 5,5v13a5,5 0 0 1 -5,5h-52.21875a5,5 0 0 1 -5,-5v-13a5,5 0 0 1 5,-5z" style="stroke: rgb(51, 51, 51); fill: none; stroke-width: 1px;"/></g><g id="node-name-/Concat" class="node graph-node" transform="translate(42.938720703125,351)" style=""><g class="node-item node-item-type node-item-type-tensor" transform="translate(0,0)"><path d="M5,0h38.15869140625a5,5 0 0 1 5,5v13a5,5 0 0 1 -5,5h-38.15869140625a5,5 0 0 1 -5,-5v-13a5,5 0 0 1 5,-5z" style="stroke: rgb(0, 0, 0); fill: rgb(89, 66, 59); stroke-width: 0;"/><text x="6" y="16" style="font-family: -apple-system, BlinkMacSystemFont, &quot;Segoe WPC&quot;, &quot;Segoe UI&quot;, Ubuntu, &quot;Droid Sans&quot;, sans-serif, &quot;PingFang SC&quot;; font-size: 11px; text-rendering: geometricprecision; user-select: none; fill: rgb(255, 255, 255);">Concat</text><title>/Concat</title></g><path class="node node-border" d="M5,0h38.15869140625a5,5 0 0 1 5,5v13a5,5 0 0 1 -5,5h-38.15869140625a5,5 0 0 1 -5,-5v-13a5,5 0 0 1 5,-5z" style="stroke: rgb(51, 51, 51); fill: none; stroke-width: 1px;"/></g><g id="node-name-/lin_out/Gemm" class="node graph-node" transform="translate(43.89306640625,394)" style=""><g class="node-item node-item-type node-item-type-layer" transform="translate(0,0)"><path d="M5,0h36.25a5,5 0 0 1 5,5v13a5,5 0 0 1 -5,5h-36.25a5,5 0 0 1 -5,-5v-13a5,5 0 0 1 5,-5z" style="stroke: rgb(0, 0, 0); fill: rgb(51, 85, 136); stroke-width: 0;"/><text x="6" y="16" style="font-family: -apple-system, BlinkMacSystemFont, &quot;Segoe WPC&quot;, &quot;Segoe UI&quot;, Ubuntu, &quot;Droid Sans&quot;, sans-serif, &quot;PingFang SC&quot;; font-size: 11px; text-rendering: geometricprecision; user-select: none; fill: rgb(255, 255, 255);">Gemm</text><title>/lin_out/Gemm</title></g><path class="node node-border" d="M5,0h36.25a5,5 0 0 1 5,5v13a5,5 0 0 1 -5,5h-36.25a5,5 0 0 1 -5,-5v-13a5,5 0 0 1 5,-5z" style="stroke: rgb(51, 51, 51); fill: none; stroke-width: 1px;"/></g><g id="node-name-/preact_norm/BatchNormalization" class="node graph-node" transform="translate(12.28369140625,437)" style=""><g class="node-item node-item-type node-item-type-normalization" transform="translate(0,0)"><path d="M5,0h99.46875a5,5 0 0 1 5,5v13a5,5 0 0 1 -5,5h-99.46875a5,5 0 0 1 -5,-5v-13a5,5 0 0 1 5,-5z" style="stroke: rgb(0, 0, 0); fill: rgb(51, 85, 68); stroke-width: 0;"/><text x="6" y="16" style="font-family: -apple-system, BlinkMacSystemFont, &quot;Segoe WPC&quot;, &quot;Segoe UI&quot;, Ubuntu, &quot;Droid Sans&quot;, sans-serif, &quot;PingFang SC&quot;; font-size: 11px; text-rendering: geometricprecision; user-select: none; fill: rgb(255, 255, 255);">BatchNormalization</text><title>/preact_norm/BatchNormalization</title></g><path class="node node-border" d="M5,0h99.46875a5,5 0 0 1 5,5v13a5,5 0 0 1 -5,5h-99.46875a5,5 0 0 1 -5,-5v-13a5,5 0 0 1 5,-5z" style="stroke: rgb(51, 51, 51); fill: none; stroke-width: 1px;"/></g><g id="node-name-/LeakyRelu_2" class="node graph-node" transform="translate(35.90869140625,480)" style=""><g class="node-item node-item-type node-item-type-activation" transform="translate(0,0)"><path d="M5,0h52.21875a5,5 0 0 1 5,5v13a5,5 0 0 1 -5,5h-52.21875a5,5 0 0 1 -5,-5v-13a5,5 0 0 1 5,-5z" style="stroke: rgb(0, 0, 0); fill: rgb(112, 41, 33); stroke-width: 0;"/><text x="6" y="16" style="font-family: -apple-system, BlinkMacSystemFont, &quot;Segoe WPC&quot;, &quot;Segoe UI&quot;, Ubuntu, &quot;Droid Sans&quot;, sans-serif, &quot;PingFang SC&quot;; font-size: 11px; text-rendering: geometricprecision; user-select: none; fill: rgb(255, 255, 255);">LeakyRelu</text><title>/LeakyRelu_2</title></g><path class="node node-border" d="M5,0h52.21875a5,5 0 0 1 5,5v13a5,5 0 0 1 -5,5h-52.21875a5,5 0 0 1 -5,-5v-13a5,5 0 0 1 5,-5z" style="stroke: rgb(51, 51, 51); fill: none; stroke-width: 1px;"/></g><g class="node" transform="translate(54.05322265625,547)" style=""><g class="node-item graph-item-output" transform="translate(0,0)"><path d="M5,0h15.9296875a5,5 0 0 1 5,5v13a5,5 0 0 1 -5,5h-15.9296875a5,5 0 0 1 -5,-5v-13a5,5 0 0 1 5,-5z" style="stroke: rgb(0, 0, 0); fill: rgb(238, 238, 238); stroke-width: 0;"/><text x="6" y="16" style="font-family: -apple-system, BlinkMacSystemFont, &quot;Segoe WPC&quot;, &quot;Segoe UI&quot;, Ubuntu, &quot;Droid Sans&quot;, sans-serif, &quot;PingFang SC&quot;; font-size: 11px; text-rendering: geometricprecision; user-select: none;">37</text><title>float32[1,11]</title></g><path class="node node-border" d="M5,0h15.9296875a5,5 0 0 1 5,5v13a5,5 0 0 1 -5,5h-15.9296875a5,5 0 0 1 -5,-5v-13a5,5 0 0 1 5,-5z" style="stroke: rgb(51, 51, 51); fill: none; stroke-width: 1px;"/></g><g class="node" transform="translate(68.14013671875,307.5)" style=""><g class="node-item graph-item-output" transform="translate(0,0)"><path d="M5,0h18.43359375a5,5 0 0 1 5,5v13a5,5 0 0 1 -5,5h-18.43359375a5,5 0 0 1 -5,-5v-13a5,5 0 0 1 5,-5z" style="stroke: rgb(0, 0, 0); fill: rgb(238, 238, 238); stroke-width: 0;"/><text x="6" y="16" style="font-family: -apple-system, BlinkMacSystemFont, &quot;Segoe WPC&quot;, &quot;Segoe UI&quot;, Ubuntu, &quot;Droid Sans&quot;, sans-serif, &quot;PingFang SC&quot;; font-size: 11px; text-rendering: geometricprecision; user-select: none;">x.3</text><title>float32[1,8]</title></g><path class="node node-border" d="M5,0h18.43359375a5,5 0 0 1 5,5v13a5,5 0 0 1 -5,5h-18.43359375a5,5 0 0 1 -5,-5v-13a5,5 0 0 1 5,-5z" style="stroke: rgb(51, 51, 51); fill: none; stroke-width: 1px;"/></g></g></g></svg>